<svg width="32" height="32" viewBox="0 0 32 32" fill="none" xmlns="http://www.w3.org/2000/svg">
<path d="M18 29C17.7961 28.9995 17.5972 28.9367 17.43 28.82L7.43 21.82C7.29753 21.7281 7.18925 21.6055 7.11438 21.4627C7.03951 21.32 7.00027 21.1612 7 21V11C7.00027 10.8388 7.03951 10.68 7.11438 10.5372C7.18925 10.3944 7.29753 10.2719 7.43 10.18L17.43 3.17997C17.5758 3.08133 17.745 3.02291 17.9206 3.01062C18.0962 2.99833 18.2719 3.0326 18.43 3.10997C18.5987 3.19028 18.7414 3.31622 18.8422 3.47352C18.9429 3.63082 18.9976 3.81319 19 3.99997V28C19.0004 28.1836 18.9502 28.3638 18.8549 28.5208C18.7597 28.6778 18.623 28.8055 18.46 28.89C18.3177 28.9629 18.1599 29.0006 18 29ZM9 20.48L17 26.08V5.91997L9 11.52V20.48Z" fill="white"/>
<path d="M8 22H4C3.20435 22 2.44129 21.6839 1.87868 21.1213C1.31607 20.5587 1 19.7956 1 19V13C1 12.2044 1.31607 11.4413 1.87868 10.8787C2.44129 10.3161 3.20435 10 4 10H8C8.26522 10 8.51957 10.1054 8.70711 10.2929C8.89464 10.4804 9 10.7348 9 11V21C9 21.2652 8.89464 21.5196 8.70711 21.7071C8.51957 21.8946 8.26522 22 8 22V22ZM4 12C3.73478 12 3.48043 12.1054 3.29289 12.2929C3.10536 12.4804 3 12.7348 3 13V19C3 19.2652 3.10536 19.5196 3.29289 19.7071C3.48043 19.8946 3.73478 20 4 20H7V12H4Z" fill="white"/>
<path d="M18 21V19C18.593 18.9994 19.1725 18.8232 19.6653 18.4935C20.1582 18.1638 20.5423 17.6955 20.7691 17.1477C20.996 16.5998 21.0554 15.997 20.9399 15.4154C20.8243 14.8338 20.539 14.2995 20.12 13.88L21.54 12.46C22.2411 13.1593 22.7187 14.051 22.9124 15.0221C23.106 15.9931 23.007 16.9999 22.6278 17.9146C22.2487 18.8293 21.6064 19.6109 20.7825 20.1602C19.9586 20.7094 18.9902 21.0017 18 21V21Z" fill="white"/>
<path d="M26.4799 25.48C26.3483 25.4807 26.2179 25.4555 26.096 25.4057C25.9742 25.356 25.8634 25.2826 25.7699 25.19C25.6762 25.097 25.6018 24.9864 25.551 24.8645C25.5003 24.7427 25.4741 24.612 25.4741 24.48C25.4741 24.3479 25.5003 24.2172 25.551 24.0954C25.6018 23.9735 25.6762 23.8629 25.7699 23.77C27.8278 21.7077 28.9836 18.9133 28.9836 16C28.9836 13.0866 27.8278 10.2922 25.7699 8.22996C25.6767 8.13672 25.6027 8.02603 25.5523 7.90421C25.5018 7.78239 25.4758 7.65182 25.4758 7.51996C25.4758 7.3881 25.5018 7.25753 25.5523 7.13571C25.6027 7.01389 25.6767 6.9032 25.7699 6.80996C25.8632 6.71672 25.9738 6.64276 26.0957 6.5923C26.2175 6.54184 26.3481 6.51587 26.4799 6.51587C26.6118 6.51587 26.7423 6.54184 26.8642 6.5923C26.986 6.64276 27.0967 6.71672 27.1899 6.80996C29.6264 9.24774 30.9951 12.5533 30.9951 16C30.9951 19.4466 29.6264 22.7522 27.1899 25.19C27.0965 25.2826 26.9857 25.356 26.8638 25.4057C26.742 25.4555 26.6115 25.4807 26.4799 25.48V25.48Z" fill="white"/>
<path d="M23.65 22.65C23.3876 22.6489 23.1362 22.5447 22.95 22.36C22.7851 22.1688 22.6987 21.9224 22.708 21.6702C22.7172 21.4179 22.8215 21.1785 23 21C23.6501 20.35 24.1658 19.5783 24.5176 18.7289C24.8694 17.8796 25.0505 16.9693 25.0505 16.05C25.0505 15.1307 24.8694 14.2204 24.5176 13.371C24.1658 12.5217 23.6501 11.75 23 11.1C22.8362 10.9087 22.7506 10.6626 22.7603 10.4109C22.77 10.1593 22.8743 9.92051 23.0524 9.74242C23.2305 9.56432 23.4693 9.45999 23.7209 9.45027C23.9726 9.44055 24.2187 9.52615 24.41 9.68998C26.0954 11.3775 27.0421 13.665 27.0421 16.05C27.0421 18.435 26.0954 20.7225 24.41 22.41C24.3065 22.4999 24.1857 22.5677 24.0549 22.609C23.9242 22.6503 23.7864 22.6642 23.65 22.65V22.65Z" fill="white"/>
</svg>
