<svg width="48" height="48" viewBox="0 0 48 48" fill="none" xmlns="http://www.w3.org/2000/svg"><g filter="url(#filter0_d)"><rect x=".5" y=".5" width="47" height="47" rx="23.5" stroke="#666"/></g><path d="M24 14a10 10 0 00-3.64 19.3c-.1-.79-.17-2 .03-2.87l1.17-4.97s-.3-.6-.3-1.48c0-1.39.81-2.42 1.82-2.42.85 0 1.27.64 1.27 1.4 0 .86-.55 2.14-.84 3.33-.24 1 .5 1.81 1.49 1.81 1.78 0 3.14-1.87 3.14-4.57 0-2.4-1.72-4.06-4.18-4.06a4.329 4.329 0 00-4.52 4.33c0 .86.33 1.78.74 2.28.08.1.09.19.06.29l-.28 1.13c-.04.18-.15.23-.33.14-1.26-.59-2.04-2.4-2.04-3.88 0-3.15 2.3-6.04 6.62-6.04 3.46 0 6.17 2.46 6.17 5.77 0 3.45-2.18 6.22-5.2 6.22-1 0-1.96-.53-2.28-1.15l-.63 2.37a11 11 0 01-1.24 2.63 9.999 9.999 0 0010.529-16.065A10 10 0 0024 14z" fill="#fff"/><defs><filter id="filter0_d" x="0" y="0" width="48" height="48" filterUnits="userSpaceOnUse" color-interpolation-filters="sRGB"><feFlood flood-opacity="0" result="BackgroundImageFix"/><feColorMatrix in="SourceAlpha" values="0 0 0 0 0 0 0 0 0 0 0 0 0 0 0 0 0 0 127 0" result="hardAlpha"/><feOffset/><feColorMatrix values="0 0 0 0 0.4 0 0 0 0 0.4 0 0 0 0 0.4 0 0 0 1 0"/><feBlend in2="BackgroundImageFix" result="effect1_dropShadow"/><feBlend in="SourceGraphic" in2="effect1_dropShadow" result="shape"/></filter></defs></svg>