<svg width="48" height="48" viewBox="0 0 48 48" fill="none" xmlns="http://www.w3.org/2000/svg"><g filter="url(#filter0_d)"><rect x=".5" y=".5" width="47" height="47" rx="23.5" stroke="#666"/></g><path d="M22.03 27.38v-6.76L27.97 24l-5.94 3.38zm13.2-8.88a2.849 2.849 0 00-2-2.02C31.46 16 24.35 16 24.35 16s-7.1 0-8.87.48a2.85 2.85 0 00-2 2.02C13 20.28 13 24 13 24s0 3.72.47 5.5a2.85 2.85 0 002.01 2.02c1.77.48 8.88.48 8.88.48s7.1 0 8.87-.48a2.85 2.85 0 002-2.02c.48-1.78.48-5.5.48-5.5s0-3.72-.47-5.5h-.01z" fill="#fff"/><defs><filter id="filter0_d" x="0" y="0" width="48" height="48" filterUnits="userSpaceOnUse" color-interpolation-filters="sRGB"><feFlood flood-opacity="0" result="BackgroundImageFix"/><feColorMatrix in="SourceAlpha" values="0 0 0 0 0 0 0 0 0 0 0 0 0 0 0 0 0 0 127 0" result="hardAlpha"/><feOffset/><feColorMatrix values="0 0 0 0 0.4 0 0 0 0 0.4 0 0 0 0 0.4 0 0 0 1 0"/><feBlend in2="BackgroundImageFix" result="effect1_dropShadow"/><feBlend in="SourceGraphic" in2="effect1_dropShadow" result="shape"/></filter></defs></svg>