<svg width="36" height="30" viewBox="0 0 36 30" fill="none" xmlns="http://www.w3.org/2000/svg"><path d="M18.333 0c-.451 0-.842.156-1.173.47L8.49 8.683H1.666c-.452 0-.842.157-1.172.47-.33.312-.495.683-.495 1.11v9.472c0 .427.165.798.495 1.11.33.313.721.47 1.172.47H8.49l8.671 8.215c.33.313.72.469 1.173.469.452 0 .842-.156 1.172-.47.33-.312.495-.681.495-1.11V1.58c0-.428-.165-.798-.494-1.11-.33-.314-.72-.47-1.172-.47h-.001zm9.707 18.515c.702-1.081 1.053-2.249 1.053-3.505 0-1.256-.351-2.428-1.053-3.518-.702-1.09-1.63-1.858-2.787-2.304a1.387 1.387 0 00-.62-.124c-.428 0-.8.153-1.114.458a1.513 1.513 0 00-.471 1.127c0 .347.099.64.298.879.199.239.437.446.718.619.28.173.56.363.842.57.28.207.52.499.718.879.198.38.297.851.297 1.412 0 .561-.1 1.032-.297 1.412-.198.38-.437.673-.718.879-.281.206-.562.397-.842.57-.281.173-.52.38-.718.619a1.335 1.335 0 00-.298.879c0 .446.158.821.47 1.127a1.55 1.55 0 001.116.459c.247 0 .454-.041.619-.124 1.156-.463 2.085-1.235 2.787-2.317v.003z" fill="#B3B3B3"/><path d="M33.874 22.12C35.291 19.947 36 17.572 36 15c0-2.571-.709-4.944-2.126-7.122-1.417-2.174-3.292-3.76-5.624-4.75A1.795 1.795 0 0027.6 3c-.433 0-.809.16-1.126.48A1.552 1.552 0 0026 4.614c0 .655.325 1.15.975 1.487.932.488 1.566.857 1.9 1.11a9.494 9.494 0 012.887 3.415A9.573 9.573 0 0132.8 15a9.582 9.582 0 01-1.038 4.375 9.494 9.494 0 01-2.888 3.414c-.333.253-.966.622-1.899 1.11-.65.336-.975.83-.975 1.487 0 .437.159.815.474 1.135.316.32.7.479 1.15.479.2 0 .409-.043.625-.126 2.332-.992 4.208-2.576 5.624-4.752l.001-.001z" fill="#B3B3B3"/></svg>